<?xml version="1.0" standalone="no"?>
<!DOCTYPE svg PUBLIC "-//W3C//DTD SVG 20010904//EN"
 "http://www.w3.org/TR/2001/REC-SVG-20010904/DTD/svg10.dtd">
<svg version="1.0" xmlns="http://www.w3.org/2000/svg"
 width="900.000000pt" height="621.000000pt" viewBox="0 0 900.000000 621.000000"
 preserveAspectRatio="xMidYMid meet">
<metadata>
Created by potrace 1.10, written by Peter Selinger 2001-2011
</metadata>
<g transform="translate(0.000000,621.000000) scale(0.100000,-0.100000)"
fill="#457a9c" stroke="none">
<path d="M1970 4950 c-4 -8 -6 -46 -3 -85 3 -38 1 -95 -5 -125 -6 -30 -7 -58
-4 -62 4 -3 39 -14 77 -23 39 -9 90 -23 115 -31 25 -8 58 -14 73 -14 16 0 38
-5 50 -12 12 -6 42 -15 67 -19 25 -4 67 -13 94 -19 l49 -12 -7 -137 c-15 -309
-26 -627 -26 -801 -1 -102 -5 -206 -9 -232 -7 -46 -7 -46 14 -32 12 8 27 25
33 39 l12 25 195 0 c224 0 230 -2 241 -82 7 -51 6 -51 -71 -101 -44 -28 -50
-37 -53 -71 -4 -42 13 -71 24 -43 12 33 166 84 269 89 44 3 50 6 47 23 -2 11
-7 74 -12 140 -4 66 -13 140 -18 165 -6 25 -13 88 -17 140 -4 52 -13 110 -21
129 -8 18 -14 46 -14 62 0 34 -15 38 -25 7 -4 -13 -9 -121 -11 -241 -2 -120
-6 -222 -9 -227 -10 -17 -33 -11 -40 9 -3 10 -13 21 -23 25 -9 3 -28 15 -42
26 -22 18 -43 21 -180 26 -188 6 -189 7 -191 124 -1 41 -2 82 -1 90 2 28 14
485 13 505 -3 61 1 212 5 227 6 20 -21 119 -39 140 -6 8 -31 29 -54 47 -42 32
-71 42 -213 76 -41 10 -79 22 -84 26 -6 5 -19 9 -31 9 -11 0 -31 7 -43 16 -18
12 -22 23 -19 52 7 69 -25 66 796 68 830 2 790 6 838 -75 24 -41 83 -194 109
-285 7 -27 25 -71 39 -99 13 -28 28 -72 31 -99 4 -26 13 -53 20 -59 8 -6 14
-21 14 -33 0 -11 7 -30 15 -40 8 -11 15 -30 15 -42 0 -13 4 -25 9 -28 14 -9
52 -133 45 -149 -3 -8 3 -23 13 -33 11 -11 30 -53 43 -94 13 -41 32 -92 42
-112 21 -44 23 -97 5 -123 -11 -14 -21 -17 -48 -11 -116 24 -252 7 -343 -42
-28 -15 -63 -45 -79 -67 -26 -37 -27 -46 -23 -111 2 -39 1 -76 -2 -81 -8 -12
-116 -12 -128 0 -4 4 -15 7 -24 7 -43 0 -78 65 -150 280 -28 82 -128 271 -160
303 -31 30 -54 19 -26 -12 9 -10 16 -30 16 -45 0 -28 25 -118 41 -148 5 -10 9
-26 9 -35 0 -10 7 -31 15 -47 8 -15 15 -36 15 -45 0 -10 7 -26 15 -37 8 -10
15 -28 15 -39 0 -11 7 -33 15 -49 8 -15 15 -36 15 -45 0 -10 7 -26 15 -37 8
-10 15 -28 15 -39 0 -11 7 -33 15 -49 8 -15 15 -37 15 -47 0 -28 22 -33 65
-15 21 9 66 16 100 16 62 0 65 -1 117 -50 l53 -49 -4 -220 -3 -220 38 -3 c29
-2 42 -9 51 -28 7 -14 18 -25 24 -25 17 0 13 666 -4 677 -7 4 -24 8 -39 8 -34
0 -46 21 -53 91 -4 37 -1 59 7 70 22 27 163 64 290 76 45 5 50 3 108 -48 l60
-52 0 -138 c0 -107 3 -139 13 -139 7 0 17 4 23 9 12 11 117 31 161 31 40 0 53
22 29 49 -9 10 -16 26 -16 37 0 10 -7 28 -15 38 -8 11 -15 28 -15 39 0 10 -6
31 -14 45 -16 33 -35 85 -46 131 -5 18 -13 38 -19 44 -6 6 -11 20 -11 32 0 12
-7 30 -15 41 -8 10 -15 28 -15 40 0 11 -7 29 -15 40 -8 10 -15 30 -15 44 0 14
-7 34 -15 44 -8 11 -15 28 -15 39 0 10 -6 31 -14 45 -16 33 -35 85 -46 131 -5
18 -13 38 -19 44 -6 6 -11 20 -11 32 0 12 -7 30 -15 41 -8 10 -15 30 -15 44 0
14 -7 34 -15 44 -8 11 -15 29 -15 41 0 12 -7 30 -15 41 -8 10 -15 27 -15 37 0
11 -6 31 -14 45 -16 33 -35 85 -46 131 -5 18 -13 38 -19 44 -6 6 -11 20 -11
32 0 12 -7 30 -15 41 -8 10 -15 30 -15 44 0 14 -7 34 -15 44 -8 11 -15 29 -15
41 0 12 -7 30 -15 41 -8 10 -15 29 -15 40 0 12 -8 40 -18 63 l-19 41 -892 3
c-774 2 -894 0 -901 -13z"/>
<path d="M5858 4935 c-10 -16 -18 -39 -18 -51 0 -11 -7 -29 -15 -40 -8 -10
-15 -28 -15 -39 0 -11 -6 -29 -14 -40 -7 -11 -16 -31 -19 -45 -3 -14 -15 -50
-27 -80 -12 -30 -25 -66 -30 -80 -5 -14 -18 -50 -30 -80 -12 -30 -24 -66 -27
-80 -3 -14 -12 -34 -19 -45 -8 -11 -14 -29 -14 -40 0 -11 -7 -29 -15 -39 -8
-11 -15 -29 -15 -40 0 -12 -7 -30 -15 -40 -8 -11 -15 -29 -15 -40 0 -12 -7
-30 -15 -40 -8 -11 -15 -29 -15 -40 0 -12 -7 -30 -15 -40 -8 -11 -15 -29 -15
-40 0 -12 -7 -30 -15 -40 -8 -11 -15 -29 -15 -40 0 -12 -7 -30 -15 -40 -8 -11
-15 -29 -15 -40 0 -12 -7 -30 -15 -40 -8 -11 -15 -29 -15 -40 0 -12 -7 -30
-15 -40 -8 -11 -15 -29 -15 -40 0 -12 -7 -30 -15 -40 -8 -11 -15 -29 -15 -40
0 -12 -7 -30 -15 -40 -8 -11 -15 -29 -15 -40 0 -12 -7 -30 -15 -40 -8 -11 -15
-28 -15 -38 0 -17 -20 -68 -46 -120 -8 -14 -14 -35 -14 -46 0 -11 -7 -25 -15
-32 -23 -19 -18 -37 18 -58 17 -12 45 -34 60 -50 l29 -30 5 -221 6 -221 32 0
c23 0 37 -8 53 -30 13 -16 26 -30 30 -30 4 0 7 79 7 176 l0 175 -26 6 c-15 3
-38 16 -53 29 -22 21 -26 33 -26 77 0 62 4 68 55 89 107 45 270 63 295 33 19
-23 37 -18 43 13 6 33 25 88 43 124 8 14 14 34 14 45 0 10 7 27 15 37 8 11 15
29 15 40 0 12 7 30 15 40 8 11 15 28 15 38 0 10 4 26 10 36 12 21 40 98 47
132 3 14 9 30 13 35 5 6 11 27 15 48 4 20 11 40 16 43 12 7 12 94 0 94 -6 0
-21 -15 -34 -32 -27 -38 -137 -270 -137 -290 0 -8 -5 -19 -11 -25 -7 -7 -24
-47 -39 -90 -46 -132 -69 -164 -126 -185 -27 -9 -68 -17 -91 -18 -23 0 -45 -4
-48 -10 -3 -5 -34 -10 -67 -10 l-61 0 6 61 c3 33 12 68 20 77 8 9 17 28 20 42
7 35 26 88 48 135 24 50 49 125 49 146 0 9 7 22 15 29 8 7 15 22 15 34 0 11 7
30 15 40 8 11 15 32 15 46 0 14 7 35 15 46 8 10 15 28 15 39 0 11 7 29 15 39
8 11 15 28 15 37 0 10 6 30 14 46 8 15 29 69 47 118 17 50 37 104 45 120 7 17
20 50 28 75 28 82 75 209 84 227 5 10 12 34 16 54 4 21 15 48 26 62 11 14 20
34 20 44 0 17 26 47 72 82 13 10 133 14 535 18 615 5 767 0 802 -28 20 -17 23
-24 15 -46 -5 -14 -17 -30 -26 -34 -10 -5 -26 -13 -35 -19 -10 -5 -49 -26 -88
-46 -165 -84 -194 -100 -228 -127 -20 -15 -37 -33 -37 -39 0 -7 -10 -22 -22
-35 -19 -20 -22 -36 -24 -116 -1 -51 -2 -99 -2 -107 -1 -8 2 -141 5 -295 6
-316 2 -342 -49 -364 -18 -8 -44 -15 -58 -17 -60 -5 -147 -27 -177 -45 -17
-11 -47 -37 -67 -59 -35 -39 -36 -42 -36 -121 0 -82 -10 -119 -34 -119 -7 0
-47 -23 -89 -50 -42 -28 -81 -50 -87 -50 -6 0 -33 16 -61 35 -28 19 -55 35
-59 35 -4 0 -19 18 -33 39 l-26 40 4 218 c4 203 -5 343 -25 366 -4 5 -14 2
-22 -7 -10 -9 -17 -47 -22 -112 -4 -53 -11 -118 -17 -143 -6 -25 -14 -111 -19
-191 -5 -80 -13 -162 -19 -183 -10 -43 -9 -44 84 -68 28 -7 55 -18 61 -23 6
-6 21 -18 33 -26 37 -25 62 -76 69 -141 8 -67 27 -88 38 -42 15 62 64 131 126
178 49 37 162 75 224 75 46 0 53 9 45 55 -5 25 -12 31 -44 36 -20 3 -40 8 -42
11 -3 3 -10 31 -15 62 -12 74 0 102 47 111 20 3 43 10 52 15 19 10 179 40 213
40 14 0 38 -14 58 -35 54 -56 63 -48 56 43 -10 112 -26 611 -26 795 0 137 2
157 16 157 9 0 28 6 42 14 15 7 89 44 165 82 148 74 151 76 214 117 24 15 46
27 51 27 5 0 19 11 31 24 21 23 22 25 7 54 -9 17 -16 53 -16 80 0 30 -6 54
-14 61 -9 8 -231 12 -791 14 l-778 2 -19 -30z"/>
<path d="M6820 3450 c-8 -5 -44 -12 -80 -16 -83 -8 -122 -27 -118 -57 2 -17
11 -23 40 -25 20 -2 41 -9 48 -17 7 -8 10 -50 8 -111 l-3 -99 -53 3 c-57 4
-177 -22 -203 -45 -8 -7 -19 -13 -23 -13 -15 0 -84 -73 -102 -108 -10 -20 -23
-40 -29 -44 -5 -4 -11 -58 -13 -121 -4 -105 -2 -118 21 -168 44 -96 127 -160
223 -173 37 -5 47 -2 90 31 27 21 58 45 68 55 28 26 41 23 74 -20 17 -21 46
-46 65 -57 l35 -18 85 41 c101 50 113 62 97 93 -10 18 -18 21 -51 16 -23 -3
-42 -1 -46 6 -3 6 -5 186 -4 402 l3 391 -45 32 c-48 34 -63 38 -87 22z m20
-114 c7 -14 10 -31 7 -39 -3 -8 -1 -48 5 -88 5 -41 10 -78 9 -84 0 -5 -1 -95
-2 -200 0 -104 -5 -210 -9 -235 -6 -33 -5 -49 5 -60 8 -8 18 -27 24 -42 9 -23
7 -29 -7 -36 -24 -13 -38 -5 -62 33 -19 30 -20 47 -18 204 l2 172 -30 54 -29
55 30 55 c26 49 29 63 28 137 -1 44 0 85 3 90 10 16 31 8 44 -16z m-138 -333
c17 -15 18 -34 16 -202 l-3 -186 -27 -9 c-64 -22 -167 53 -169 123 0 14 -4 34
-8 44 -13 34 17 167 46 206 15 20 32 40 37 44 16 12 88 -2 108 -20z m-250
-211 c7 -101 11 -115 38 -156 17 -25 35 -48 41 -51 18 -11 9 -35 -13 -35 -37
0 -84 41 -113 98 -23 45 -27 67 -28 135 0 45 5 94 11 109 10 23 15 26 34 19
21 -8 24 -16 30 -119z"/>
<path d="M6603 2928 c-12 -24 -17 -58 -17 -121 0 -82 1 -89 27 -114 14 -15 30
-24 33 -20 6 5 9 204 4 280 -1 20 -31 3 -47 -25z"/>
<path d="M3890 3435 c-113 -18 -138 -32 -119 -67 5 -10 21 -18 35 -18 14 0 34
-5 45 -10 18 -10 19 -25 19 -390 0 -208 -3 -385 -6 -394 -3 -9 -16 -16 -29
-16 -33 0 -70 -33 -62 -55 6 -14 14 -16 38 -11 18 3 87 6 155 6 l124 0 0 108
c0 108 -13 154 -38 138 -10 -6 -34 -71 -46 -128 -8 -33 -17 -35 -42 -7 -17 19
-19 44 -25 313 -4 220 -2 297 7 317 8 16 9 30 3 40 -10 16 -12 70 -3 93 7 19
43 21 49 4 3 -7 7 -38 9 -68 2 -30 5 -57 7 -60 1 -3 3 -79 3 -170 1 -132 4
-172 18 -202 9 -21 22 -38 28 -38 24 0 30 63 30 309 l0 257 -33 32 c-37 36
-47 37 -167 17z"/>
<path d="M1647 3344 c-4 -4 -7 -18 -7 -30 0 -27 24 -42 83 -52 38 -7 42 -10
41 -35 0 -15 -1 -166 -2 -336 l-2 -309 -36 -21 c-19 -12 -41 -21 -48 -21 -22
0 -56 -44 -46 -59 6 -12 48 -14 205 -15 l196 -1 -3 35 c-3 33 -5 35 -48 40
-25 3 -50 9 -56 12 -7 5 -13 88 -17 240 -6 223 -7 235 -31 283 -28 55 -35 145
-13 162 43 35 112 14 144 -44 26 -47 67 -172 59 -180 -3 -3 -2 -11 3 -17 12
-15 51 -131 51 -152 0 -13 -3 -14 -15 -4 -8 7 -15 25 -15 41 0 17 -9 37 -20
46 -11 10 -20 23 -20 30 0 7 -16 33 -35 59 -19 25 -35 50 -35 55 0 5 -7 9 -15
9 -26 0 -12 -103 25 -180 4 -9 11 -31 15 -50 4 -19 11 -39 15 -45 4 -5 10 -21
13 -35 7 -34 35 -111 47 -132 6 -10 10 -26 10 -36 0 -10 7 -27 15 -38 8 -10
15 -31 15 -45 0 -15 8 -37 18 -48 16 -21 19 -21 54 -7 21 9 53 16 71 16 38 0
67 25 67 57 0 11 7 34 15 49 8 16 15 37 15 46 0 9 5 20 10 23 6 3 10 14 10 23
1 9 9 35 20 57 11 22 20 47 20 55 0 8 7 24 15 34 8 11 15 30 15 42 0 13 4 25
9 28 5 3 12 23 16 43 4 21 10 43 15 48 4 6 10 27 13 47 5 36 11 46 48 87 10
11 14 30 12 47 -6 43 29 94 65 94 15 0 33 -5 40 -12 16 -16 16 -170 0 -186 -9
-9 -9 -20 1 -47 8 -24 11 -93 10 -224 l-2 -189 -28 -4 c-27 -4 -29 -2 -30 31
-4 215 -8 403 -11 435 -4 48 -28 62 -28 16 0 -17 -8 -42 -17 -57 -15 -22 -18
-58 -20 -237 -3 -206 -3 -211 -25 -228 -13 -10 -30 -18 -38 -18 -28 -1 -64
-36 -56 -55 5 -15 14 -17 53 -11 25 3 128 6 229 6 178 0 184 1 184 20 0 23
-34 40 -80 40 -57 0 -59 11 -61 371 -1 180 2 332 5 338 4 6 15 11 24 11 29 0
92 48 86 65 -5 12 -35 15 -175 15 -153 0 -170 -2 -175 -17 -3 -10 -12 -30 -20
-45 -8 -14 -14 -34 -14 -45 0 -10 -7 -27 -15 -37 -8 -11 -15 -28 -15 -37 0
-10 -6 -30 -14 -46 -8 -15 -22 -48 -31 -73 -9 -25 -23 -60 -31 -78 -8 -18 -14
-40 -14 -50 0 -9 -7 -26 -15 -36 -8 -11 -15 -32 -15 -47 0 -15 -4 -31 -10 -34
-5 -3 -10 -17 -10 -30 0 -93 -57 -59 -75 45 -4 22 -11 42 -16 46 -5 3 -9 17
-9 32 0 15 -6 36 -14 47 -7 11 -16 31 -19 45 -3 14 -15 50 -27 80 -12 30 -25
69 -29 85 -4 17 -12 39 -18 50 -14 26 -33 83 -42 120 l-7 30 -200 3 c-110 1
-203 -1 -207 -4z m510 -560 c10 -15 37 -48 61 -74 23 -26 42 -57 42 -68 0 -23
-43 -58 -59 -48 -15 10 -62 118 -57 132 2 6 -2 24 -10 39 -26 50 -8 65 23 19z"/>
<path d="M1910 3133 c0 -5 4 -15 10 -23 11 -18 25 -7 17 15 -6 15 -27 21 -27
8z"/>
<path d="M3090 3129 c-25 -5 -76 -14 -114 -21 -45 -9 -73 -19 -80 -30 -17 -28
5 -52 50 -56 21 -2 42 -9 46 -15 4 -7 8 -107 8 -223 0 -203 1 -212 23 -245 27
-40 118 -89 165 -89 30 0 58 10 112 41 8 5 24 13 35 18 12 5 27 16 34 25 20
24 58 20 72 -6 22 -43 68 -78 103 -78 19 0 38 6 44 13 6 6 40 27 76 46 53 27
66 38 66 57 0 25 -10 29 -63 25 -56 -5 -58 1 -57 250 l1 228 -32 32 c-31 30
-35 31 -88 24 -31 -4 -80 -10 -110 -14 -60 -7 -78 -23 -67 -64 5 -23 12 -27
41 -27 21 0 35 -5 36 -12 0 -7 0 -95 0 -196 1 -128 -3 -187 -11 -198 -20 -23
-106 -19 -133 7 -21 19 -22 28 -24 236 l-3 215 -35 34 c-20 19 -39 33 -43 33
-4 -1 -27 -5 -52 -10z m-8 -121 c-9 -9 -12 -7 -12 12 0 19 3 21 12 12 9 -9 9
-15 0 -24z m448 12 c15 -8 17 -18 13 -52 -3 -24 -12 -53 -19 -65 -13 -20 -12
-23 0 -23 16 0 26 -108 23 -230 -2 -58 -4 -65 -24 -68 -37 -5 -53 32 -53 123
1 44 7 98 15 119 12 34 12 42 -1 60 -15 22 -18 64 -8 115 7 32 22 38 54 21z
m-404 -63 c1 -33 3 -147 3 -182 0 -44 19 -113 45 -164 25 -49 26 -55 12 -70
-20 -19 -49 -5 -54 25 -2 11 -13 24 -25 29 -42 19 -48 49 -42 205 7 166 11
187 33 193 23 5 27 0 28 -36z"/>
<path d="M4370 3128 c-19 -5 -64 -14 -100 -19 -59 -10 -100 -30 -100 -50 0
-16 32 -39 55 -39 35 0 37 -13 7 -46 -29 -32 -80 -104 -97 -137 -5 -12 -21
-24 -35 -27 -16 -4 -26 -14 -28 -28 -3 -18 3 -23 27 -28 23 -5 33 -14 38 -33
5 -22 80 -155 105 -186 4 -5 17 -21 27 -35 18 -23 27 -25 128 -31 150 -9 167
8 86 90 -27 26 -70 80 -97 121 -27 40 -58 80 -68 89 -23 20 -23 52 0 72 9 8
44 46 77 83 33 38 68 76 78 85 23 21 22 52 -4 95 -22 38 -36 42 -99 24z m-109
-350 c10 -29 18 -59 19 -67 0 -8 11 -29 25 -47 25 -33 33 -64 16 -64 -5 0 -25
19 -46 43 -20 23 -52 58 -71 77 -19 20 -34 43 -34 52 0 17 59 72 68 64 3 -3
13 -29 23 -58z"/>
<path d="M4680 3124 c-25 -7 -59 -14 -75 -14 -40 0 -55 -16 -55 -56 0 -32 1
-33 48 -36 l47 -3 6 -210 c4 -128 11 -222 18 -240 14 -35 59 -85 77 -85 6 0
17 -7 24 -15 23 -27 93 -19 167 21 38 20 75 42 83 49 8 8 26 16 40 20 20 4 28
0 42 -24 9 -16 35 -42 58 -57 l41 -27 87 45 c92 49 109 65 98 93 -5 14 -13 16
-41 11 -19 -4 -44 -2 -55 4 -19 10 -20 20 -20 244 l0 233 -37 32 c-40 35 -48
36 -124 20 -30 -6 -72 -14 -94 -18 -39 -6 -40 -7 -40 -46 0 -39 1 -40 40 -45
l40 -5 3 -189 c3 -223 2 -226 -83 -226 -41 0 -56 5 -73 23 -21 22 -22 31 -22
236 l0 214 -36 33 c-40 39 -84 44 -164 18z m88 -116 c5 -7 13 -31 16 -54 6
-31 3 -44 -9 -54 -9 -8 -19 -9 -24 -4 -10 10 -21 111 -13 119 9 8 19 6 30 -7z
m410 0 c15 -19 22 -62 27 -170 3 -78 1 -99 -11 -109 -20 -16 -10 -82 18 -122
24 -33 17 -60 -14 -55 -15 2 -24 11 -26 25 -2 12 -12 25 -23 28 -24 8 -25 40
-3 85 13 26 14 37 5 51 -12 21 -19 248 -7 267 9 15 21 15 34 0z m-408 -146 c0
-10 3 -22 8 -26 4 -4 8 -41 9 -81 1 -51 9 -92 26 -134 l25 -61 -27 6 c-54 12
-59 15 -71 43 -10 26 -13 243 -3 264 8 15 33 6 33 -11z"/>
<path d="M7325 3125 c-36 -12 -76 -23 -160 -43 -30 -8 -30 -8 -33 -90 -4 -112
3 -122 82 -122 l64 0 12 53 c6 28 13 62 16 74 2 14 16 25 38 33 76 25 116 -34
116 -168 l0 -82 -132 0 c-145 0 -163 -6 -209 -64 -31 -40 -31 -129 0 -180 38
-61 85 -86 162 -86 47 0 70 4 79 15 7 8 17 15 22 15 6 0 27 14 48 30 21 17 42
30 48 30 5 0 26 -20 48 -45 33 -40 43 -45 79 -45 23 0 46 5 52 11 6 6 39 25
74 43 57 29 64 36 64 62 0 28 -2 29 -49 30 -29 1 -52 7 -57 15 -5 8 -6 88 -3
179 5 116 3 178 -6 210 -12 44 -63 110 -86 110 -6 0 -17 7 -24 15 -16 19 -187
20 -245 0z m236 -131 c23 -24 24 -34 30 -192 3 -92 7 -171 9 -177 7 -26 -1
-36 -27 -33 -24 3 -29 9 -35 47 -4 25 -12 49 -18 55 -16 16 -12 67 7 88 14 15
17 38 17 109 0 56 -4 93 -12 101 -7 7 -12 16 -12 20 0 15 17 8 41 -18z m-93
-338 c-2 -43 -15 -66 -38 -66 -10 0 -22 -4 -25 -10 -9 -15 -64 -12 -80 4 -47
46 -16 102 67 121 62 15 79 3 76 -49z"/>
<path d="M5588 3125 c-2 -3 -31 -10 -64 -16 -85 -15 -92 -18 -99 -40 -10 -29
12 -49 54 -49 20 0 42 -5 49 -12 9 -9 12 -71 12 -218 0 -225 -4 -242 -57 -253
-41 -8 -67 -31 -60 -51 6 -14 29 -16 177 -18 93 -1 185 -2 203 -2 29 -1 32 2
35 31 3 30 -1 35 -42 55 l-46 22 0 192 0 192 50 16 c44 14 53 15 78 2 48 -25
52 -44 55 -280 l2 -219 160 0 160 1 0 28 c0 23 -8 32 -47 51 l-48 24 0 193 c0
117 -4 206 -11 227 -16 48 -66 98 -106 105 -18 3 -36 10 -39 15 -16 26 -97 -1
-186 -62 -32 -21 -60 -39 -63 -39 -3 0 -5 10 -5 23 0 13 -14 37 -33 55 -27 26
-41 32 -78 32 -25 0 -48 -2 -51 -5z m71 -101 c22 -16 23 -21 16 -73 -4 -31 -8
-117 -9 -191 -1 -74 -5 -141 -9 -147 -14 -23 -44 -15 -51 13 -4 14 -6 99 -6
187 1 89 -2 170 -5 180 -17 43 20 61 64 31z m377 -11 c14 -9 30 -28 36 -42 13
-34 11 -382 -2 -395 -7 -7 -16 -5 -27 7 -14 14 -19 45 -24 169 -6 138 -20 212
-42 234 -4 4 -7 16 -7 26 0 23 32 24 66 1z"/>
<path d="M2818 3045 c-4 -16 -2 -97 3 -180 6 -82 9 -172 7 -199 -2 -36 1 -51
12 -56 8 -4 29 -15 47 -24 17 -9 34 -16 37 -16 3 0 6 88 6 195 l0 195 -22 0
c-36 1 -62 27 -74 73 -10 42 -10 42 -16 12z"/>
<path d="M4432 2866 c-23 -35 -42 -66 -42 -68 0 -3 17 -27 38 -55 20 -28 44
-62 52 -74 8 -13 36 -46 63 -73 26 -27 47 -54 47 -60 0 -7 4 -6 8 1 9 14 -19
166 -35 199 -16 29 -34 85 -43 126 -7 36 -25 68 -39 68 -4 0 -26 -29 -49 -64z"/>
<path d="M2456 2728 c-2 -7 -6 -22 -9 -33 -3 -11 -11 -34 -18 -51 -7 -17 -9
-38 -6 -47 5 -14 11 -15 32 -5 23 10 25 17 25 74 0 57 -14 94 -24 62z"/>
<path d="M6220 2642 c0 -5 6 -16 13 -27 16 -20 31 -7 21 19 -6 16 -34 23 -34
8z"/>
<path d="M4160 2491 c0 -23 -8 -48 -19 -62 -19 -23 -24 -24 -181 -25 -172 -2
-228 5 -242 30 -12 21 -42 20 -63 0 -18 -18 -13 -63 11 -101 8 -12 14 -31 14
-41 0 -10 7 -27 15 -38 8 -10 15 -27 15 -37 0 -11 6 -31 14 -45 16 -33 35 -85
46 -131 5 -18 13 -38 19 -44 6 -6 11 -20 11 -32 0 -12 7 -30 15 -41 8 -10 15
-28 15 -40 0 -11 7 -29 15 -40 8 -10 15 -30 15 -44 0 -14 7 -34 15 -44 8 -11
15 -29 15 -41 0 -12 7 -30 15 -41 8 -10 15 -28 15 -40 0 -11 7 -29 15 -40 8
-10 15 -28 15 -40 0 -11 7 -29 15 -40 8 -10 15 -31 15 -45 0 -14 7 -34 15 -45
8 -10 15 -28 15 -40 0 -11 7 -29 15 -40 8 -10 15 -28 15 -39 0 -11 6 -29 14
-40 7 -11 16 -31 19 -45 6 -28 24 -81 42 -125 7 -16 21 -56 31 -88 17 -54 20
-57 51 -57 19 0 50 7 70 15 19 8 52 15 73 15 20 0 59 7 86 15 27 8 64 15 82
15 19 0 61 6 95 14 114 27 181 39 255 45 61 5 77 10 93 30 10 13 19 33 19 45
0 11 7 30 15 40 8 11 15 29 15 40 0 12 7 30 15 40 8 11 15 29 15 40 0 12 7 30
15 40 8 11 15 29 15 40 0 12 7 30 15 40 8 11 15 29 15 40 0 12 7 30 15 40 8
11 15 29 15 40 0 12 7 30 15 40 8 11 15 29 15 40 0 12 7 30 15 40 8 11 15 28
15 37 0 10 6 30 14 46 8 15 22 47 30 71 9 23 23 60 31 82 8 22 22 59 31 83 8
23 22 55 30 70 8 16 14 36 14 46 0 9 7 26 15 37 8 10 15 28 15 39 0 11 7 29
15 39 8 11 15 28 15 37 0 10 8 32 17 51 9 18 23 46 31 61 17 35 9 57 -21 57
-14 0 -30 7 -37 15 -18 22 -32 19 -91 -20 -78 -51 -124 -46 -199 21 -38 34
-44 37 -63 24 -12 -7 -43 -24 -69 -37 -27 -13 -48 -31 -48 -39 0 -8 -4 -22
-10 -32 -22 -39 -59 -158 -68 -222 -9 -56 -34 -65 -56 -21 -9 16 -16 38 -16
48 0 19 -23 96 -45 148 -15 38 -34 91 -46 131 -11 36 -55 88 -68 80 -4 -3 -11
-26 -14 -51 -7 -69 -20 -74 -174 -75 l-132 0 -34 35 c-18 19 -42 50 -53 70
-24 45 -34 44 -34 -4z m92 -157 c24 -12 66 -16 187 -17 86 -1 162 -6 169 -10
14 -9 42 -72 42 -93 0 -20 88 -137 113 -151 12 -7 30 -12 40 -13 22 0 127 109
127 132 0 9 4 19 9 22 4 3 11 18 14 33 3 16 20 45 38 66 28 34 36 38 63 33 17
-3 75 -12 128 -19 54 -7 101 -16 104 -20 4 -4 1 -13 -6 -22 -7 -8 -10 -21 -7
-30 6 -14 -7 -60 -36 -128 -30 -68 -57 -143 -57 -155 0 -6 -16 -46 -35 -88
-19 -41 -35 -83 -35 -93 0 -9 -4 -21 -8 -27 -5 -5 -15 -29 -22 -54 -8 -25 -17
-49 -20 -55 -4 -5 -16 -37 -28 -70 -11 -33 -29 -82 -40 -110 -11 -27 -32 -81
-47 -120 -15 -38 -34 -85 -43 -104 -29 -58 -112 -95 -246 -107 -33 -3 -77 -12
-97 -19 -20 -8 -39 -12 -41 -9 -3 2 -22 -2 -44 -10 -21 -7 -77 -16 -124 -20
-78 -7 -88 -5 -112 13 -15 12 -34 43 -43 69 -10 26 -23 61 -30 77 -34 80 -68
173 -80 214 -22 78 -54 165 -70 193 -8 14 -15 37 -15 51 0 13 -6 30 -14 36 -8
7 -18 27 -21 44 -3 18 -10 41 -15 52 -5 11 -23 63 -41 115 -17 52 -42 118 -54
145 -13 28 -29 77 -36 110 -7 33 -16 65 -22 72 -24 32 47 55 161 53 70 -1 178
13 190 25 11 11 75 4 104 -11z"/>
<path d="M2944 2458 c-8 -37 -13 -43 -44 -51 -29 -8 -390 -4 -455 5 -20 3 -20
-5 -27 -317 -8 -392 -16 -614 -24 -626 -3 -5 -12 -9 -21 -9 -8 0 -27 -6 -41
-14 -15 -7 -74 -37 -132 -65 -58 -29 -118 -61 -135 -71 -16 -11 -39 -24 -50
-30 -11 -6 -33 -19 -50 -30 -16 -11 -37 -23 -45 -27 -8 -4 -27 -16 -42 -26
-26 -19 -26 -21 -12 -48 7 -15 14 -50 14 -77 0 -91 -90 -82 913 -85 l887 -2 2
118 c1 64 2 129 2 143 1 23 -5 28 -59 45 -33 10 -73 19 -90 19 -16 0 -41 7
-55 15 -14 8 -41 15 -60 15 -19 0 -46 7 -60 15 -14 8 -38 15 -55 15 -34 1
-121 22 -130 32 -5 5 -6 763 -1 943 1 37 -1 40 -29 43 -49 5 -112 39 -142 77
-15 19 -33 35 -39 35 -5 0 -14 -19 -20 -42z m92 -137 c28 -26 32 -38 37 -103
5 -57 10 -359 8 -503 -3 -255 -2 -275 20 -314 45 -81 150 -130 369 -173 58
-11 100 -41 100 -71 0 -30 -18 -54 -45 -61 -18 -5 -928 -20 -1035 -17 -8 0
-67 2 -130 4 -63 2 -163 5 -223 5 -104 2 -108 3 -119 27 -10 22 -8 29 13 51
27 30 75 61 157 105 31 16 64 34 72 38 8 5 37 20 63 33 65 31 136 94 154 136
14 35 19 114 28 489 5 232 12 301 32 325 20 23 67 29 240 33 83 2 160 8 170
14 30 18 57 12 89 -18z"/>
<path d="M6316 2456 c-22 -52 -47 -58 -220 -54 l-150 3 2 -400 c2 -220 5 -430
8 -466 l6 -66 -48 -22 c-121 -55 -303 -150 -362 -188 -35 -23 -72 -45 -82 -48
-9 -3 -26 -15 -36 -26 -17 -19 -17 -21 -1 -48 10 -17 17 -50 17 -78 0 -26 4
-54 8 -61 7 -10 216 -13 1052 -13 573 0 1044 1 1045 3 1 2 5 66 8 143 l6 141
-52 13 c-29 7 -73 17 -99 21 -26 5 -56 13 -67 19 -11 6 -35 11 -53 11 -18 1
-44 7 -58 15 -14 8 -40 14 -58 15 -18 0 -43 5 -54 11 -12 7 -44 14 -72 18
l-51 6 -7 290 c-4 160 -9 388 -11 507 -2 120 -6 221 -10 224 -4 4 -25 -6 -47
-21 -32 -22 -47 -27 -79 -22 -22 3 -46 10 -53 16 -54 46 -75 61 -85 61 -6 0
-35 -19 -63 -41 -52 -41 -54 -42 -114 -36 -72 7 -130 33 -174 78 l-31 31 -15
-36z m101 -121 c16 -8 58 -19 92 -23 52 -8 72 -6 116 11 64 23 136 18 204 -16
67 -33 69 -49 73 -472 3 -341 4 -362 24 -405 31 -66 82 -110 146 -125 29 -7
96 -25 148 -40 52 -15 117 -31 144 -37 37 -9 52 -18 67 -42 25 -42 24 -61 -6
-85 -25 -19 -40 -19 -921 -18 -871 2 -896 3 -910 22 -8 10 -14 26 -14 34 0 21
40 61 62 61 10 0 18 4 18 10 0 5 25 21 55 35 30 15 57 30 60 35 3 5 38 25 78
44 104 51 158 101 168 157 4 24 13 66 20 92 10 38 10 58 0 97 -7 27 -9 59 -5
72 4 13 8 139 8 281 l1 259 24 19 c15 13 37 19 65 17 53 -2 167 12 186 23 23
13 64 10 97 -6z"/>
</g>
</svg>
